<svg width="127" height="128" fill="none" xmlns="http://www.w3.org/2000/svg"><path d="M76.868 48.091c-.604 0-1.052.492-1.052 1.096 0 .605.448 1.097 1.054 1.097 4.226 0 4.345 3.942 4.345 4.387v21.927c0 .45-.061 4.392-4.288 4.392-4.224 0-4.287-3.941-4.287-4.387V71.12c0-.607-.466-1.096-1.07-1.096-.605 0-1.072.491-1.072 1.096v5.48c0 .457-.334 4.39-4.554 4.39-4.226 0-4.554-3.941-4.554-4.387V71.12c0-1.206-.17-2.936-1.309-4.542h.43c.12 0 12.062-.061 12.062-11.985 0-3.794-1.122-6.748-3.336-8.857-3.546-3.378-8.568-3.155-8.727-3.148-5.427 0-9.037 2.939-10.731 4.684-.831.856-1.247 1.99-1.247 3.17V74.41c0 1.915-.545 3.223-1.54 3.885-.343.23-.953.502-1.862.502-.481-.002-1.164.001-1.922-.77a1.103 1.103 0 00-1.556-.013 1.098 1.098 0 00-.015 1.551c1.405 1.428 2.855 1.43 3.523 1.424 1.408 0 2.43-.473 3.024-.87 1.129-.753 2.492-2.355 2.492-5.71V50.445c0-.608.221-1.189.653-1.635 1.453-1.496 4.571-4.008 9.244-4.008.04-.005 4.283-.174 7.157 2.562 1.762 1.678 2.653 4.083 2.653 7.254 0 9.714-9.47 9.815-9.871 9.815h-5.483c-.605 0-1.097.544-1.097 1.15 0 .606.408 1.124 1.014 1.124 4.226 0 4.304 3.97 4.304 4.414v5.483c0 2.275 1.458 6.58 6.662 6.58 2.825 0 4.564-1.268 5.525-2.791.962 1.523 2.588 2.79 5.413 2.79 5.204 0 6.51-4.304 6.51-6.579V54.671c-.002-2.276-1.287-6.58-6.492-6.58z" fill="#252627"/><path d="M55.025 57.96a1.097 1.097 0 000-2.193 1.097 1.097 0 000 2.192z" fill="#252627"/><path d="M63.5 2C29.037 2 1 30.037 1 64.5S29.037 127 63.5 127 126 98.963 126 64.5 97.963 2 63.5 2zm0 2.144c28.336 0 52.169 19.628 58.628 46.001l-18.799 4.524C98.912 36.779 82.735 23.47 63.5 23.47c-19.247 0-35.434 13.326-39.838 31.235L4.863 50.182C11.31 23.79 35.152 4.144 63.5 4.144zM102.385 64.5c0 21.443-17.444 38.885-38.885 38.885-21.44 0-38.885-17.444-38.885-38.885 0-21.44 17.444-38.885 38.885-38.885 21.44 0 38.885 17.444 38.885 38.885zM63.5 124.856c-33.282 0-60.356-27.076-60.356-60.356 0-4.188.429-8.277 1.245-12.228l18.817 4.529a41.025 41.025 0 00-.735 7.699c0 22.623 18.406 41.029 41.029 41.029 22.623 0 41.029-18.406 41.029-41.029 0-2.645-.262-5.23-.742-7.736l18.816-4.53a60.387 60.387 0 011.253 12.264c0 33.282-27.076 60.358-60.356 60.358z" fill="#252627"/><path d="M15.861 69.617l-2.647-1.387 2.416-1.76-.105-1.421-5.986.44.094 1.293 3.884-.287-2.409 1.855.002.034 2.68 1.496-3.907.287.097 1.31 5.984-.442-.103-1.418zm.405 2.813l-5.906 1.071.236 1.3 5.906-1.07-.236-1.3zm-1.239 6.031l-1.098.31.363 1.28-.826.233c-.322-.257-.554-.635-.686-1.098-.29-1.024.28-1.97 1.337-2.269l.016-.005c.982-.279 2.007.225 2.269 1.149.19.669.086 1.125-.159 1.675l1.193.527c.341-.746.444-1.454.148-2.493-.494-1.748-2.202-2.647-3.844-2.18l-.017.005c-1.708.484-2.618 2.079-2.11 3.876a3.9 3.9 0 001.615 2.208l2.508-.711-.709-2.507zm5.299 6.809l-2.166.977-1-2.22 2.164-.976-.542-1.203-5.471 2.466.542 1.203 2.198-.99 1 2.22-2.196.99.542 1.204 5.471-2.466-.542-1.205zm2.699 7.146l1.036-.642-2.619-4.23-1.035.64.961 1.554-4.07 2.519.697 1.123 4.07-2.518.96 1.554zm4.103 3.274l-2.788.376.976-2.625-.968-1.201-1.382 4.076-1.84 1.483.827 1.029 1.861-1.502 4.257-.47-.943-1.167zm3.72 3.848l-4.029 4.446.979.887 4.029-4.446-.979-.887zm2.954 7.16l-.05-4.642-.977-.727-3.582 4.813 1.045.779 2.279-3.061.052 4.795.9.671 3.583-4.812-1.045-.779-2.205 2.963zm8.392.728l-3.387 2.974.625-4.466-1.282-.691-.734 6.472 1.025.554 5.007-4.168-1.254-.675zm.205 6.716l4.275 1.616.416-1.098-3.048-1.153.446-1.179 2.647 1.001.416-1.099-2.647-1 .43-1.14 3.007 1.138.416-1.1-4.235-1.601-2.123 5.615zm10.907.948l-1.92-4.227-1.187-.27-1.332 5.848 1.268.29.85-3.717 1.983 4.363 1.094.25 1.335-5.85-1.27-.289-.821 3.602zm3.233-1.913l1.817.166-.432 4.763 1.314.119.434-4.762 1.816.165.112-1.212-4.951-.45-.11 1.211zm19.031-.197l-.002-.017c-.234-1.213-1.21-1.784-2.6-1.515l-2.694.52 1.138 5.895 1.297-.25-.364-1.887 1.018-.196 1.629 1.642 1.515-.292-1.847-1.826c.696-.426 1.093-1.123.91-2.074zm-2.132 1.346l-1.315.253-.327-1.692 1.288-.248c.632-.124 1.075.089 1.183.645l.003.017c.095.496-.2.903-.832 1.025zm6.512-4.819l-.626 2.745-2.116-1.836-1.465.486 3.333 2.723.743 2.245 1.254-.416-.754-2.268 1.052-4.151-1.422.472zm11.128-.744c-.514-.91-1.326-.954-2.54-.633-1.035.279-1.322.292-1.514-.051l-.009-.015c-.144-.253-.025-.586.416-.834.44-.249 1.005-.311 1.648-.252l.108-1.203c-.77-.126-1.554.002-2.316.431-1.067.601-1.474 1.659-.94 2.606l.008.016c.585 1.037 1.43.946 2.632.62 1-.269 1.263-.22 1.427.071l.009.015c.172.306-.005.652-.477.917-.596.338-1.228.368-1.917.245l-.22 1.196a3.823 3.823 0 002.69-.414c1.126-.635 1.59-1.664 1.005-2.703l-.01-.012zm5.856-5.787c-1.037-1.354-2.93-1.645-4.402-.52-1.471 1.125-1.69 3.052-.655 4.407l.01.014c1.035 1.356 2.93 1.645 4.4.52 1.471-1.125 1.693-3.052.655-4.407l-.008-.014zm-1.37 3.443c-.844.645-1.964.422-2.59-.394l-.011-.013c-.625-.818-.55-1.933.295-2.58.845-.645 1.965-.424 2.59.394l.01.014c.627.819.55 1.934-.294 2.579zm-26.662 8.159c-.409-1.657-2.029-2.679-3.826-2.237-1.797.443-2.77 2.122-2.363 3.777l.005.017c.407 1.657 2.027 2.679 3.826 2.237 1.799-.443 2.772-2.122 2.365-3.777l-.007-.017zm-2.633 2.608c-1.033.253-1.97-.399-2.217-1.397l-.005-.017c-.245-1 .27-1.992 1.303-2.245 1.032-.253 1.97.399 2.216 1.397l.003.017c.248 1-.268 1.991-1.3 2.245zm34.63-18.887l-2.007 2.042-.912-.895 2.277-2.318-.855-.84-3.204 3.26 4.282 4.205.924-.942-1.655-1.629 2.006-2.042-.856-.841zm2.952-5.704l-.962-.745-3.044 3.93.961.745 1.118-1.442 3.782 2.929.809-1.044-3.782-2.93 1.118-1.443zm3.478-8.529l3.012 2.996-4.236-.716-.529 1 2.978 3.096-4.172-.798-.662 1.25 6.3 1.013.537-1.015-2.837-3.034 4.103.639.537-1.017-4.385-4.635-.646 1.22zm1.458-4.081l4.939 4.328.419-1.28-1.108-.94.792-2.41 1.45-.102.43-1.31-6.544.558-.378 1.156zm3.789-.218l-.497 1.513-1.599-1.364 2.096-.15zm.512-9.228l-.017-.004c-1.216-.21-2.096.497-2.339 1.89l-.472 2.703 5.912 1.03.227-1.3-1.892-.33.177-1.021 2.113-.938.266-1.52-2.364 1.076c-.146-.799-.655-1.419-1.611-1.586zm.502 2.471l-.23 1.318-1.698-.296.225-1.292c.11-.634.465-.971 1.022-.875l.017.003c.5.088.773.51.664 1.142zm2.677-8.518l-.147 3.256-1.258-.057.126-2.828-1.174-.052-.128 2.827-1.216-.054.143-3.214-1.172-.053-.204 4.526 5.998.269.204-4.568-1.172-.052zM21.294 44.956l.878-1.588-2.312-1.277.689-1.248 3.166-.272 1.025-1.856-3.554.339c.167-1.106-.218-2.14-1.384-2.784l-.02-.012c-1.486-.82-2.948-.294-3.888 1.407l-1.823 3.303 7.223 3.988zm-4.039-6.363c.427-.774 1.04-1.056 1.721-.68l.02.013c.609.336.778 1.008.35 1.782l-.888 1.61-2.075-1.146.872-1.58zm11.774-5.096l-2.564-5.105 5.165 2.437 1.103-1.13-3.981-7.82-1.325 1.36 2.806 5.124-5.309-2.595-1.086 1.114 2.723 5.243-5.193-2.68-1.358 1.395 7.916 3.787 1.103-1.13zM46.992 21.01l-.681-1.466-4.064 1.888-.73-1.57 3.529-1.64-.681-1.465-3.529 1.64-.708-1.519 4.012-1.864-.68-1.465-5.648 2.625 3.48 7.485 5.7-2.649zm8.675-2.353l-.392-1.603-3.996.973-1.561-6.414-1.765.43 1.952 8.016 5.762-1.402zm9.085-.643L64.68 16.4l-4.473.196-.076-1.73 3.885-.17-.071-1.611-3.885.168-.073-1.67 4.416-.194-.071-1.614-6.216.272.36 8.242 6.275-.276zm5.268-1.957l1.362.215c1.827.287 3.449-.46 3.745-2.346l.003-.024c.262-1.664-.733-3.002-2.677-3.307l-3.33-.524-1.282 8.149 1.792.282.387-2.445zm.644-4.086l1.385.218c.897.14 1.387.659 1.26 1.463l-.003.024c-.11.697-.718 1.152-1.615 1.01l-1.42-.223.393-2.492zm9.326 5.605l3.118 1.216-1.204 3.085 1.69.66 2.999-7.686-1.691-.658-1.186 3.04-3.118-1.216 1.186-3.042-1.691-.66-2.998 7.687 1.69.659 1.205-3.085zm7.748 7.287l1.672-1.094 2.874 1.981-.431 1.953 1.563 1.08 1.809-8.85-1.379-.952-7.632 4.833 1.524 1.05zm5.539-3.627l-.617 2.826-1.804-1.245 2.421-1.58zm7.38 7.365l-1.228 6.478 1.032 1.149 6.135-5.519-1.197-1.33-3.777 3.396 1.192-6.272-1.12-1.245-6.135 5.519 1.198 1.331 3.9-3.507zm2.745 12.213l.897 1.578 5.716-3.254 1.243 2.183 1.455-.828-3.382-5.94-1.454.825 1.241 2.183-5.716 3.253z" fill="#252627"/></svg>