<svg width="159" height="100" viewBox="0 0 159 100" fill="none" xmlns="http://www.w3.org/2000/svg">
<path fill-rule="evenodd" clip-rule="evenodd" d="M6.314 94.5653L9.213 98.907V98.906H12.692L9.387 94.0588C11.107 93.4209 12.287 92.0459 12.287 89.8545V89.8163C12.287 87.0241 10.372 85.3382 7.184 85.3382H1V98.907H3.975V94.5653H6.314ZM6.93316 88.0313C8.38216 88.0313 9.27116 88.6882 9.27116 89.9689V90.0071C9.27116 91.1514 8.44016 91.9257 6.99116 91.9257H3.97516V88.0313H6.93316Z" fill="#252627"/>
<path d="M30.4678 99H27.8788L24.8248 90.127L21.7718 99H19.1828L14.5628 85.3379H17.7518L20.5548 94.5229L23.5888 85.2968H26.1388L29.1738 94.5229L31.9758 85.3379H35.0868L30.4678 99Z" fill="#252627"/>
<path d="M45.0183 98.9059V85.3371H55.2203V87.9909H47.9743V90.747H54.3513V93.3988H47.9743V96.2491H55.3173V98.9059H45.0183Z" fill="#252627"/>
<path d="M58.9297 98.9059V85.3371H61.9057V96.191H68.6497V98.9059H58.9297Z" fill="#252627"/>
<path d="M71.8558 98.9059V85.3371H82.0608V87.9909H74.8128V90.747H81.1908V93.3988H74.8128V96.2491H82.1558V98.9059H71.8558Z" fill="#252627"/>
<path fill-rule="evenodd" clip-rule="evenodd" d="M88.7449 94.833H91.0069C94.0399 94.833 96.4759 93.2072 96.4749 90.066V90.0279C96.4749 87.2567 94.5229 85.3371 91.2959 85.3371H85.7679V98.9059H88.7449V94.833ZM91.0445 88.0318C92.5335 88.0318 93.4605 88.7479 93.4605 90.0838H93.4595V90.1259C93.4595 91.2873 92.5895 92.1779 91.1025 92.1779H88.7445V88.0318H91.0445Z" fill="#252627"/>
<path d="M108.107 98.9059V93.4579H102.619V98.9059H99.643V85.3371H102.619V90.7049H108.107V85.3371H111.084V98.9059H108.107Z" fill="#252627"/>
<path fill-rule="evenodd" clip-rule="evenodd" d="M124.127 95.8632L125.363 98.9061H128.474L122.678 85.241H119.934L114.136 98.9061H117.17L118.405 95.8632H124.127ZM119.47 93.2255L121.267 88.8246L123.064 93.2255H119.47Z" fill="#252627"/>
<path d="M141.016 98.9059L134.464 90.2796V98.9059H131.525V85.3371H134.271L140.608 93.6916V85.3371H143.547V98.9059H141.016Z" fill="#252627"/>
<path d="M153.884 88.0872V98.9059H150.909V88.0872H146.791V85.3371H158V88.0872H153.884Z" fill="#252627"/>
<path d="M102.058 71.5826C97.2241 71.5826 94.3196 69.3786 92.6768 66.7281C91.0309 69.3786 88.1274 71.5826 83.2939 71.5826C74.3883 71.5826 72.0351 64.098 72.0351 60.1396V50.6025C72.0291 49.8305 71.76 42.9724 64.5302 42.9724C63.4937 42.9724 62.6543 42.1181 62.6543 41.0654C62.6543 40.0107 63.4937 39.1574 64.5302 39.1574H73.9121C74.5984 39.1554 90.7988 38.8899 90.7988 21.9913C90.7988 16.4767 89.271 12.1999 86.2555 9.28094C81.3399 4.52003 74.0732 4.81193 74.0031 4.8221C66.008 4.82515 60.6572 9.19245 58.1719 11.7962C57.4326 12.5712 57.0254 13.5801 57.0254 14.6389V56.3245C57.0254 62.1605 54.7232 64.9462 52.7912 66.2572C51.7746 66.9468 50.0558 67.7686 47.6475 67.7686C46.5009 67.7778 44.0196 67.7747 41.6154 65.291C40.888 64.5414 40.897 63.3321 41.6354 62.5948C42.3728 61.8543 43.5604 61.8635 44.2888 62.6161C45.5884 63.9556 46.736 63.9505 47.5605 63.9526C49.1153 63.9526 50.1238 63.4786 50.7091 63.084C52.41 61.9286 53.2724 59.6565 53.2724 56.3245V14.6389C53.2724 12.5834 54.0548 10.6316 55.4786 9.13957C58.3781 6.10361 64.6263 1.00809 73.9121 1.00809C74.1832 0.994863 82.7777 0.64194 88.8458 6.51756C92.6318 10.1851 94.5527 15.3915 94.5527 21.9903C94.5527 42.7314 74.1182 42.9714 73.9121 42.9714H73.1787C75.1277 45.4103 75.789 48.5033 75.789 50.6015V60.1385C75.7951 60.9095 76.0642 67.7676 83.2939 67.7676C90.5157 67.7676 90.7908 60.9268 90.7988 60.1324V50.6015C90.7988 49.5468 91.6392 48.6945 92.6768 48.6945C93.7113 48.6945 94.5527 49.5478 94.5527 50.6015V60.1385C94.5587 60.9095 94.8279 67.7676 102.058 67.7676C109.288 67.7676 109.557 60.9095 109.563 60.1294V21.9892C109.557 21.2163 109.288 14.3592 102.058 14.3592C101.022 14.3592 100.182 13.5058 100.182 12.4522C100.182 11.3985 101.022 10.5452 102.058 10.5452C110.963 10.5452 113.316 18.0318 113.316 21.9892V60.1375C113.316 64.098 110.964 71.5826 102.058 71.5826" fill="#252627"/>
<path d="M66.4066 25.8052C66.4066 26.8589 65.5662 27.7122 64.5307 27.7122C63.4951 27.7122 62.6537 26.8579 62.6537 25.8052C62.6537 24.7525 63.4941 23.8982 64.5307 23.8982C65.5672 23.8982 66.4066 24.7515 66.4066 25.8052" fill="#252627"/>
</svg>
